<svg width="24" height="24" viewBox="0 0 24 24" fill="none" xmlns="http://www.w3.org/2000/svg">
<path d="M12.6408 1H11.3623C11.0106 1 10.7445 1.31831 10.807 1.66447L11.5783 4.15968H12.4249L13.1962 1.66447C13.2586 1.31831 12.9926 1 12.6408 1Z" fill="#B14E2F"/>
<path d="M4.00273 11.2267C-0.177095 19.7092 9.41831 19.9258 10.9887 22.4463C11.2055 22.7943 11.5916 23.0002 12.0016 23.0002C12.4116 23.0002 12.7977 22.7943 13.0145 22.4463C14.5849 19.9258 24.1803 19.7092 20.0005 11.2267L12.0016 9.35791L4.00273 11.2267Z" fill="#F6B259"/>
<path d="M20.0004 11.2267C22.1685 7.39565 19.888 3.47119 12.0015 3.47119C4.11506 3.47119 1.83463 7.39565 4.00267 11.2267H20.0004Z" fill="#DC6742"/>
</svg>
