<svg width="177" height="33" viewBox="0 0 177 33" fill="none" xmlns="http://www.w3.org/2000/svg">
<path d="M8.821 25.48C6.04767 25.48 3.90367 25.0747 2.389 24.264C1.89833 24.008 1.57833 23.7413 1.429 23.464C1.27967 23.1867 1.205 22.7813 1.205 22.248V20.424C1.205 19.6347 1.557 19.24 2.261 19.24C2.49567 19.24 2.933 19.368 3.573 19.624C4.213 19.88 5.05567 20.136 6.101 20.392C7.14633 20.6267 8.26633 20.744 9.461 20.744C11.637 20.744 12.725 20.0933 12.725 18.792C12.725 18.1307 12.4477 17.608 11.893 17.224C11.3597 16.84 10.197 16.4667 8.405 16.104L7.605 15.944C5.25833 15.4747 3.55167 14.7067 2.485 13.64C1.41833 12.552 0.885 11.1013 0.885 9.288C0.885 7.048 1.61033 5.29867 3.061 4.04C4.51167 2.76 6.741 2.12 9.749 2.12C12.2237 2.12 14.3143 2.55733 16.021 3.432C16.5117 3.688 16.8317 3.95466 16.981 4.232C17.1303 4.488 17.205 4.89333 17.205 5.448V7.112C17.205 7.90133 16.853 8.296 16.149 8.296C15.9997 8.296 15.189 8.06133 13.717 7.592C12.2663 7.10133 10.9117 6.856 9.653 6.856C7.39167 6.856 6.261 7.48533 6.261 8.744C6.261 9.36267 6.50633 9.832 6.997 10.152C7.509 10.4507 8.57567 10.792 10.197 11.176L11.125 11.4C13.5997 11.9973 15.381 12.8187 16.469 13.864C17.557 14.9093 18.101 16.3707 18.101 18.248C18.101 20.4667 17.3437 22.2267 15.829 23.528C14.3143 24.8293 11.9783 25.48 8.821 25.48ZM37.9275 8.36C38.5888 8.36 38.9195 8.744 38.9195 9.512V31.848C38.9195 32.616 38.5995 33 37.9595 33C36.9142 33 35.9542 32.4027 35.0795 31.208C34.2262 30.0347 33.7995 28.4987 33.7995 26.6V24.232C32.4555 25.1707 30.8982 25.64 29.1275 25.64C26.6315 25.64 24.5942 24.8187 23.0155 23.176C21.4368 21.512 20.6475 19.4 20.6475 16.84C20.6475 14.3227 21.4368 12.232 23.0155 10.568C24.6155 8.88267 26.6528 8.04 29.1275 8.04C30.3435 8.04 31.4742 8.27467 32.5195 8.744C33.5648 9.192 34.3755 9.75733 34.9515 10.44C35.3782 9.8 35.8688 9.29867 36.4235 8.936C36.9782 8.552 37.4795 8.36 37.9275 8.36ZM26.9835 19.88C27.7515 20.648 28.7008 21.032 29.8315 21.032C30.9622 21.032 31.9008 20.648 32.6475 19.88C33.4155 19.0907 33.7995 18.0773 33.7995 16.84C33.7995 15.6027 33.4155 14.6 32.6475 13.832C31.9008 13.0427 30.9622 12.648 29.8315 12.648C28.7008 12.648 27.7515 13.0427 26.9835 13.832C26.2155 14.6 25.8315 15.6027 25.8315 16.84C25.8315 18.0773 26.2155 19.0907 26.9835 19.88ZM57.8328 8.68C58.4514 8.68 58.8888 8.81867 59.1448 9.096C59.4008 9.352 59.5288 9.77867 59.5288 10.376V24.168C59.5288 24.936 59.1981 25.32 58.5368 25.32C58.0888 25.32 57.5874 25.1387 57.0328 24.776C56.4781 24.392 55.9874 23.8693 55.5608 23.208C54.1741 24.8293 52.3714 25.64 50.1528 25.64C48.0408 25.64 46.2914 24.9787 44.9048 23.656C43.3474 22.1627 42.5688 19.8267 42.5688 16.648V10.376C42.5688 9.75733 42.6968 9.32 42.9528 9.064C43.2301 8.808 43.6674 8.68 44.2648 8.68H45.9928C46.5901 8.68 47.0168 8.808 47.2728 9.064C47.5501 9.32 47.6888 9.75733 47.6888 10.376V16.168C47.6888 17.96 48.0194 19.1973 48.6808 19.88C49.2354 20.4773 50.0034 20.776 50.9848 20.776C52.0088 20.776 52.8301 20.4347 53.4488 19.752C54.0888 19.048 54.4088 17.9067 54.4088 16.328V10.376C54.4088 9.77867 54.5368 9.352 54.7928 9.096C55.0488 8.81867 55.4861 8.68 56.1048 8.68H57.8328ZM66.1705 6.088C65.3598 6.088 64.6665 5.82133 64.0905 5.288C63.5358 4.73333 63.2585 4.072 63.2585 3.304C63.2585 2.51467 63.5358 1.85333 64.0905 1.32C64.6665 0.786666 65.3598 0.519999 66.1705 0.519999C66.9598 0.519999 67.6425 0.797332 68.2185 1.352C68.7945 1.88533 69.0825 2.536 69.0825 3.304C69.0825 4.072 68.7945 4.73333 68.2185 5.288C67.6425 5.82133 66.9598 6.088 66.1705 6.088ZM65.3065 25C64.7092 25 64.2718 24.872 63.9945 24.616C63.7385 24.36 63.6105 23.9227 63.6105 23.304V10.376C63.6105 9.75733 63.7385 9.32 63.9945 9.064C64.2718 8.808 64.7092 8.68 65.3065 8.68H67.0345C67.6318 8.68 68.0585 8.808 68.3145 9.064C68.5918 9.32 68.7305 9.75733 68.7305 10.376V23.304C68.7305 23.9227 68.5918 24.36 68.3145 24.616C68.0585 24.872 67.6318 25 67.0345 25H65.3065ZM83.5173 8.296C83.8159 8.40267 84.0079 8.52 84.0933 8.648C84.1999 8.776 84.2533 8.97867 84.2533 9.256V12.296C84.2533 12.808 84.0399 13.064 83.6133 13.064C83.4639 13.064 83.1973 13.0427 82.8133 13C82.4293 12.936 82.0559 12.904 81.6933 12.904C80.4773 12.904 79.5493 13.2987 78.9093 14.088C78.2693 14.8773 77.9493 16.0293 77.9493 17.544V23.304C77.9493 23.9227 77.8106 24.36 77.5333 24.616C77.2773 24.872 76.8506 25 76.2533 25H74.5253C73.9066 25 73.4693 24.872 73.2133 24.616C72.9573 24.3387 72.8293 23.9013 72.8293 23.304V9.512C72.8293 8.744 73.1599 8.36 73.8213 8.36C74.3119 8.36 74.8453 8.57333 75.4213 9C76.0186 9.42667 76.5306 10.0027 76.9573 10.728C78.0026 8.936 79.6026 8.04 81.7573 8.04C82.5039 8.04 83.0906 8.12533 83.5173 8.296ZM97.6423 8.296C97.9409 8.40267 98.1329 8.52 98.2183 8.648C98.3249 8.776 98.3783 8.97867 98.3783 9.256V12.296C98.3783 12.808 98.1649 13.064 97.7383 13.064C97.5889 13.064 97.3223 13.0427 96.9383 13C96.5543 12.936 96.1809 12.904 95.8183 12.904C94.6023 12.904 93.6743 13.2987 93.0343 14.088C92.3943 14.8773 92.0743 16.0293 92.0743 17.544V23.304C92.0743 23.9227 91.9356 24.36 91.6583 24.616C91.4023 24.872 90.9756 25 90.3783 25H88.6503C88.0316 25 87.5943 24.872 87.3383 24.616C87.0823 24.3387 86.9543 23.9013 86.9543 23.304V9.512C86.9543 8.744 87.2849 8.36 87.9463 8.36C88.4369 8.36 88.9703 8.57333 89.5463 9C90.1436 9.42667 90.6556 10.0027 91.0823 10.728C92.1276 8.936 93.7276 8.04 95.8823 8.04C96.6289 8.04 97.2156 8.12533 97.6423 8.296ZM116.287 16.776C116.287 17.352 116.169 17.768 115.935 18.024C115.7 18.2587 115.273 18.376 114.655 18.376H104.735C104.969 19.1867 105.492 19.8587 106.303 20.392C107.113 20.904 108.169 21.16 109.471 21.16C110.623 21.16 111.689 21.0213 112.671 20.744C113.652 20.4667 114.153 20.328 114.175 20.328C114.751 20.328 115.039 20.6373 115.039 21.256V23.112C115.039 23.816 114.815 24.3067 114.367 24.584C113.236 25.288 111.433 25.64 108.959 25.64C106.292 25.64 104.073 24.8507 102.303 23.272C100.553 21.6933 99.6788 19.5493 99.6788 16.84C99.6788 14.3867 100.468 12.3067 102.047 10.6C103.647 8.89333 105.641 8.04 108.031 8.04C110.676 8.04 112.713 8.82933 114.143 10.408C115.572 11.9653 116.287 14.088 116.287 16.776ZM108.095 12.328C107.156 12.328 106.388 12.584 105.791 13.096C105.215 13.5867 104.852 14.248 104.703 15.08H111.327C111.22 14.248 110.889 13.5867 110.335 13.096C109.801 12.584 109.055 12.328 108.095 12.328ZM133.922 20.136C134.519 20.136 134.946 20.264 135.202 20.52C135.479 20.776 135.618 21.2133 135.618 21.832V23.304C135.618 23.9227 135.479 24.36 135.202 24.616C134.946 24.872 134.519 25 133.922 25H121.25C120.631 25 120.194 24.872 119.938 24.616C119.682 24.3387 119.554 23.9013 119.554 23.304V4.296C119.554 3.69867 119.682 3.272 119.938 3.016C120.194 2.73867 120.631 2.6 121.25 2.6H123.234C123.853 2.6 124.29 2.73867 124.546 3.016C124.802 3.272 124.93 3.69867 124.93 4.296V20.136H133.922ZM141.358 6.088C140.547 6.088 139.854 5.82133 139.278 5.288C138.723 4.73333 138.446 4.072 138.446 3.304C138.446 2.51467 138.723 1.85333 139.278 1.32C139.854 0.786666 140.547 0.519999 141.358 0.519999C142.147 0.519999 142.83 0.797332 143.406 1.352C143.982 1.88533 144.27 2.536 144.27 3.304C144.27 4.072 143.982 4.73333 143.406 5.288C142.83 5.82133 142.147 6.088 141.358 6.088ZM140.494 25C139.897 25 139.459 24.872 139.182 24.616C138.926 24.36 138.798 23.9227 138.798 23.304V10.376C138.798 9.75733 138.926 9.32 139.182 9.064C139.459 8.808 139.897 8.68 140.494 8.68H142.222C142.819 8.68 143.246 8.808 143.502 9.064C143.779 9.32 143.918 9.75733 143.918 10.376V23.304C143.918 23.9227 143.779 24.36 143.502 24.616C143.246 24.872 142.819 25 142.222 25H140.494ZM154.065 25.544C152.934 25.544 151.814 25.4373 150.705 25.224C149.595 25.0107 148.806 24.776 148.337 24.52C147.761 24.2 147.473 23.72 147.473 23.08V21.512C147.473 20.7227 147.814 20.328 148.497 20.328C148.625 20.328 149.297 20.52 150.513 20.904C151.729 21.2667 153.062 21.448 154.513 21.448C155.771 21.448 156.401 21.032 156.401 20.2C156.401 19.7947 156.23 19.5067 155.889 19.336C155.547 19.1653 154.875 18.984 153.873 18.792L152.849 18.6C151.099 18.28 149.755 17.7573 148.817 17.032C147.899 16.3067 147.441 15.1973 147.441 13.704C147.441 11.72 148.102 10.3013 149.425 9.448C150.769 8.57333 152.486 8.136 154.577 8.136C156.902 8.136 158.737 8.456 160.081 9.096C160.657 9.37333 160.945 9.85333 160.945 10.536V12.104C160.945 12.8507 160.603 13.224 159.921 13.224C159.686 13.224 158.961 13.064 157.745 12.744C156.55 12.4027 155.473 12.232 154.513 12.232C153.254 12.232 152.625 12.5947 152.625 13.32C152.625 13.6827 152.785 13.9493 153.105 14.12C153.425 14.2693 154.065 14.4293 155.025 14.6L155.921 14.76C157.755 15.08 159.153 15.6133 160.113 16.36C161.094 17.1067 161.585 18.344 161.585 20.072C161.585 21.9707 160.891 23.3573 159.505 24.232C158.118 25.1067 156.305 25.544 154.065 25.544ZM175.462 20.488C175.974 20.488 176.23 20.7867 176.23 21.384V23.272C176.23 23.784 176.155 24.1573 176.006 24.392C175.878 24.6267 175.568 24.84 175.078 25.032C174.331 25.3307 173.35 25.48 172.134 25.48C167.91 25.48 165.798 23.1867 165.798 18.6V13.096H164.454C163.856 13.096 163.419 12.968 163.142 12.712C162.886 12.456 162.758 12.0187 162.758 11.4V10.376C162.758 9.75733 162.886 9.32 163.142 9.064C163.419 8.808 163.856 8.68 164.454 8.68H165.798V6.216C165.798 5.61867 165.926 5.192 166.182 4.936C166.438 4.65867 166.875 4.52 167.494 4.52H169.222C169.84 4.52 170.278 4.65867 170.534 4.936C170.79 5.192 170.918 5.61867 170.918 6.216V8.68H174.182C174.779 8.68 175.206 8.808 175.462 9.064C175.739 9.32 175.878 9.75733 175.878 10.376V11.4C175.878 12.0187 175.739 12.456 175.462 12.712C175.206 12.968 174.779 13.096 174.182 13.096H170.918V17.992C170.918 19.0373 171.099 19.7733 171.462 20.2C171.846 20.6053 172.464 20.808 173.318 20.808C173.744 20.808 174.171 20.7547 174.598 20.648C175.046 20.5413 175.334 20.488 175.462 20.488Z" fill="#0CC4CE"/>
</svg>
